<mxfile host="app.diagrams.net" modified="2024-05-31T16:43:19.134Z" agent="Mozilla/5.0 (Macintosh; Intel Mac OS X 10_15_7) AppleWebKit/605.1.15 (KHTML, like Gecko) Version/17.5 Safari/605.1.15" version="24.4.13" etag="wSKv2j2TTFF8klkkJbWF" type="github">
  <diagram name="Page-1" id="WHSFXrPZ1du4yy9R2WJF">
    <mxGraphModel>
      <root>
        <mxCell id="0" />
        <mxCell id="1" parent="0" />
      </root>
    </mxGraphModel>
  </diagram>
</mxfile>
